<svg width="18" height="18" viewBox="0 0 18 18" fill="none" xmlns="http://www.w3.org/2000/svg">
<g clip-path="url(#clip0_4_4121)">
<path d="M9.00005 0.5625C5.31568 0.5625 2.1938 2.925 1.04068 6.1875H16.9594C15.8063 2.925 12.6844 0.5625 9.00005 0.5625ZM9.00005 17.4375C12.6844 17.4375 15.8063 15.1031 16.9594 11.8125H1.04068C2.1938 15.1031 5.31568 17.4375 9.00005 17.4375Z" fill="#ED4C5C"/>
<path d="M1.04063 6.1875C0.73125 7.05937 0.5625 8.01562 0.5625 9C0.5625 9.98438 0.73125 10.9406 1.04063 11.8125H16.9594C17.2687 10.9406 17.4375 9.98438 17.4375 9C17.4375 8.01562 17.2687 7.05937 16.9594 6.1875H1.04063Z" fill="white"/>
</g>
<defs>
<clipPath id="clip0_4_4121">
<rect width="18" height="18" fill="white"/>
</clipPath>
</defs>
</svg>
