<svg width="18" height="18" fill="none" xmlns="http://www.w3.org/2000/svg"><g clip-path="url(#a)"><path d="M9 .563a8.448 8.448 0 0 0-7.96 5.625h15.92A8.448 8.448 0 0 0 9 .563Zm0 16.875a8.41 8.41 0 0 0 7.96-5.625H1.04A8.41 8.41 0 0 0 9 17.436Z" fill="#ED4C5C"/><path d="M1.04 6.188A8.436 8.436 0 0 0 .563 9c0 .984.17 1.94.479 2.813H16.96c.31-.872.479-1.829.479-2.813 0-.984-.17-1.94-.479-2.813H1.041Z" fill="#fff"/></g><defs><clipPath id="a"><path fill="#fff" d="M0 0h18v18H0z"/></clipPath></defs></svg>